<svg aria-hidden="true" style="position:absolute;width:0;height:0;overflow:hidden" xmlns="http://www.w3.org/2000/svg">
  <defs>
    <symbol id="arrow" viewBox="0 0 32 32">
      <path d="m31.805 15.529-10-10a.668.668 0 0 0-.943.943l8.862 8.862H.667a.667.667 0 1 0 0 1.334h29.057l-8.862 8.862a.668.668 0 0 0 .942.943l10-10a.668.668 0 0 0 0-.943z"/>
    </symbol>
    <symbol id="burger-menu" viewBox="0 0 32 32">
      <path d="M4 24h24v-2.667H4V24zm0-6.667h24v-2.667H4v2.667zM4 8v2.667h24V8H4z"/>
    </symbol>
    <symbol id="close" viewBox="0 0 32 32">
      <path d="m25.333 8.547-1.88-1.88L16 14.12 8.547 6.667l-1.88 1.88L14.12 16l-7.453 7.453 1.88 1.88L16 17.88l7.453 7.453 1.88-1.88L17.88 16l7.453-7.453z"/>
    </symbol>
    <symbol id="heart-fill" viewBox="0 0 32 32">
      <path d="m16 30.72-2.24-2.24C5.44 21.12 0 16.16 0 10.08c0-4.96 3.84-8.8 8.8-8.8 2.72 0 5.44 1.28 7.2 3.36 1.76-2.08 4.48-3.36 7.2-3.36 4.96 0 8.8 3.84 8.8 8.8 0 6.08-5.44 11.04-13.76 18.4L16 30.72z"/>
    </symbol>
    <symbol id="heart-footer" viewBox="0 0 32 32">
      <path fill="#ff6b09" style="fill:var(--color1, #ff6b09)" d="m16 30.72-2.24-2.24C5.44 21.12 0 16.16 0 10.08c0-4.96 3.84-8.8 8.8-8.8 2.72 0 5.44 1.28 7.2 3.36 1.76-2.08 4.48-3.36 7.2-3.36 4.96 0 8.8 3.84 8.8 8.8 0 6.08-5.44 11.04-13.76 18.4L16 30.72z"/>
    </symbol>
    <symbol id="heart" viewBox="0 0 32 32">
      <path d="M16 30.22c-.456 0-.895-.165-1.237-.465a374.562 374.562 0 0 0-3.639-3.13l-.006-.005c-3.224-2.747-6.008-5.12-7.945-7.457-2.165-2.613-3.174-5.09-3.174-7.796 0-2.629.902-5.055 2.539-6.831C4.195 2.739 6.467 1.75 8.939 1.75c1.847 0 3.539.584 5.028 1.736A10.288 10.288 0 0 1 16 5.609c.6-.83 1.281-1.541 2.033-2.123 1.489-1.152 3.181-1.736 5.028-1.736 2.471 0 4.744.99 6.401 2.786C31.099 6.312 32 8.737 32 11.367c0 2.706-1.008 5.184-3.174 7.796-1.937 2.337-4.721 4.71-7.944 7.457-1.102.939-2.35 2.002-3.646 3.136a1.878 1.878 0 0 1-1.237.464zM8.939 3.624c-1.942 0-3.725.775-5.023 2.182-1.317 1.428-2.042 3.403-2.042 5.56 0 2.276.846 4.312 2.743 6.6 1.833 2.212 4.56 4.536 7.717 7.227l.006.005c1.104.941 2.355 2.007 3.657 3.146a430.966 430.966 0 0 1 3.669-3.151c3.157-2.691 5.884-5.014 7.717-7.226 1.897-2.289 2.742-4.324 2.742-6.6 0-2.157-.725-4.132-2.042-5.56-1.297-1.407-3.081-2.182-5.023-2.182-1.422 0-2.728.452-3.881 1.344-1.028.795-1.743 1.8-2.163 2.503-.216.362-.596.577-1.016.577s-.801-.216-1.016-.577c-.42-.703-1.135-1.708-2.163-2.503-1.153-.892-2.459-1.344-3.881-1.344z"/>
    </symbol>
    <symbol id="logo-header" viewBox="0 0 147 32">
      <path fill="none" stroke="#121d2e" style="stroke:var(--color2, #121d2e)" stroke-width="1.143" d="M147.429 0H0v32h147.429V0z"/>
      <path fill="#121d2e" style="fill:var(--color2, #121d2e)" d="M69.613 25.486h5.265v-2.373h-2.234V9.668h2.234v-2.37h-5.265v18.187zm10.938-3.772h3.147V10.679h4.352V8.114H76.199v2.565h4.352v11.035zm18.729-5.187a5.64 5.64 0 0 0-.709-2.866 4.825 4.825 0 0 0-1.953-1.889 6.188 6.188 0 0 0-5.625.03 5.098 5.098 0 0 0-2.001 1.913 5.347 5.347 0 0 0-.729 2.768c-.016.977.24 1.939.738 2.778a5.051 5.051 0 0 0 2.098 1.913 6.816 6.816 0 0 0 3.128.686 5.416 5.416 0 0 0 4.313-1.69l-1.613-1.749a3.503 3.503 0 0 1-1.175.768 4.014 4.014 0 0 1-1.448.242 3.354 3.354 0 0 1-1.982-.563 2.462 2.462 0 0 1-1.01-1.535h7.907c.039-.505.058-.777.058-.816l.001.01zm-5.421-3.128a2.555 2.555 0 0 1 1.714.592c.471.404.776.968.855 1.584h-5.153c.074-.62.38-1.189.855-1.593a2.61 2.61 0 0 1 1.729-.583zm11.543 8.471c.902.019 1.8-.122 2.651-.418a3.718 3.718 0 0 0 1.699-1.175 2.76 2.76 0 0 0 .583-1.729 2.513 2.513 0 0 0-.602-1.787 3.148 3.148 0 0 0-1.418-.883c-.69-.194-1.39-.347-2.098-.457a9.288 9.288 0 0 1-1.671-.369.694.694 0 0 1-.525-.685.803.803 0 0 1 .486-.7 3.057 3.057 0 0 1 1.457-.272 6.022 6.022 0 0 1 3.011.777l1.01-2.157a6.212 6.212 0 0 0-1.817-.67 10.165 10.165 0 0 0-2.206-.243 7.158 7.158 0 0 0-2.593.427 3.692 3.692 0 0 0-1.671 1.194 2.856 2.856 0 0 0-.571 1.759 2.545 2.545 0 0 0 .611 1.829c.395.42.894.728 1.447.894.695.198 1.402.347 2.118.447a7.857 7.857 0 0 1 1.613.33.673.673 0 0 1 .524.641c0 .635-.641.952-1.923.952a7.104 7.104 0 0 1-1.943-.281 6.352 6.352 0 0 1-1.69-.729l-1.01 2.171a6.654 6.654 0 0 0 1.983.815c.831.214 1.687.322 2.545.321v-.001zm13.309-2.798a1.952 1.952 0 0 1-1.224.389 1.264 1.264 0 0 1-.962-.359 1.43 1.43 0 0 1-.343-1.021v-4.253h2.603v-2.331h-2.602V8.95h-3.031v2.545h-1.609v2.334h1.613v4.294a3.647 3.647 0 0 0 1.016 2.792 4.07 4.07 0 0 0 2.886.952c.462.002.923-.054 1.371-.166.394-.092.768-.26 1.098-.495l-.816-2.134zm2.233 4.391h9.714v-1.749h-9.714v1.749zm16.473 2.023V7.299h-5.246v2.37h2.215v13.445h-2.215v2.373h5.246zM0 0h52.893l8.816 16.64L52.893 32H0V0z"/>
      <path fill="#fff" style="fill:var(--color3, #fff)" d="M18.357 8.114H12.47v13.6h3.147v-3.75h2.743a7.643 7.643 0 0 0 3.138-.592 4.578 4.578 0 0 0 2.045-1.715c.49-.782.74-1.69.719-2.613a4.702 4.702 0 0 0-.719-2.618 4.662 4.662 0 0 0-2.049-1.714 7.572 7.572 0 0 0-3.137-.598zm-.175 7.286h-2.565v-4.721h2.565a3.303 3.303 0 0 1 2.161.613 2.152 2.152 0 0 1 .738 1.758 2.133 2.133 0 0 1-.738 1.739 3.302 3.302 0 0 1-2.157.611h-.005zm11.579-2.759v-1.379h-2.895v10.453h3.031V16.78a2.95 2.95 0 0 1 .738-2.185 2.768 2.768 0 0 1 2.04-.73c.117 0 .343.013.68.039v-2.798a5.434 5.434 0 0 0-2.127.389 3.371 3.371 0 0 0-1.466 1.143l-.001.003zm10.857 9.229a6.207 6.207 0 0 0 2.953-.686 5.138 5.138 0 0 0 2.04-1.913 5.27 5.27 0 0 0 .738-2.778 5.267 5.267 0 0 0-.735-2.778 5.138 5.138 0 0 0-2.04-1.913 6.684 6.684 0 0 0-5.916 0 5.124 5.124 0 0 0-2.05 1.913 5.27 5.27 0 0 0-.738 2.778c-.016.977.24 1.939.738 2.778a5.124 5.124 0 0 0 2.05 1.913 6.272 6.272 0 0 0 2.962.686h-.003zm0-2.487a2.56 2.56 0 0 1-1.923-.787 2.913 2.913 0 0 1-.758-2.108 2.917 2.917 0 0 1 .758-2.108 2.543 2.543 0 0 1 1.923-.787 2.524 2.524 0 0 1 1.914.786c.518.577.786 1.335.747 2.109a2.94 2.94 0 0 1-.747 2.109 2.527 2.527 0 0 1-1.915.787v-.002z"/>
    </symbol>
    <symbol id="sign-out" viewBox="0 0 32 32">
      <path d="m25.293 9.293-1.414 1.414L28.172 15H14v2h14.172l-4.293 4.293 1.414 1.414L32 16l-6.707-6.707z"/>
      <path d="M22 30H2V2h20v2h2V1a1 1 0 0 0-1-1H1a1 1 0 0 0-1 1v30a1 1 0 0 0 1 1h22a1 1 0 0 0 1-1v-3h-2v2z"/>
    </symbol>
    <symbol id="google" viewBox="0 0 32 32">
      <path fill="#2196f3" style="fill: var(--color1, #2196f3)" d="M31.743 13.038c0.142 0 0.258 0.115 0.258 0.258v2.704c0 1.012-0.094 2.002-0.274 2.962-1.395 7.457-7.964 13.092-15.839 13.038-8.836-0.061-15.907-7.2-15.887-16.036 0.019-8.82 7.176-15.964 16-15.964 4.323 0 8.246 1.715 11.126 4.501 0.104 0.101 0.107 0.266 0.004 0.369l-3.826 3.826c-0.099 0.098-0.258 0.101-0.359 0.005-1.808-1.721-4.253-2.777-6.946-2.777-5.561 0-10.039 4.446-10.076 10.007-0.038 5.597 4.488 10.146 10.076 10.146 4.534 0 8.369-2.995 9.633-7.115h-9.376c-0.142 0-0.258-0.115-0.258-0.258v-5.408c0-0.142 0.115-0.258 0.258-0.258l15.485 0z"></path>
      <path fill="#1e88e5" style="fill: var(--color2, #1e88e5)" d="M31.742 13.038h-1.932c0.142 0 0.258 0.115 0.258 0.258v2.704c0 1.012-0.094 2.002-0.274 2.962-1.331 7.114-7.371 12.57-14.761 13.009 0.283 0.017 0.567 0.026 0.854 0.028 7.874 0.054 14.444-5.581 15.839-13.038 0.18-0.96 0.274-1.95 0.274-2.962v-2.704c0-0.142-0.115-0.258-0.258-0.258z"></path>
      <path fill="#f44336" style="fill: var(--color3, #f44336)" d="M6.847 11.78l-4.859-3.511c2.726-4.931 7.979-8.269 14.012-8.269 4.323 0 8.246 1.715 11.126 4.501 0.104 0.101 0.107 0.266 0.004 0.369l-3.826 3.826c-0.098 0.098-0.257 0.101-0.358 0.005-1.807-1.721-4.253-2.777-6.946-2.777-4.058 0-7.556 2.399-9.152 5.857z"></path>
      <path fill="#e53935" style="fill: var(--color4, #e53935)" d="M5.444 10.767l1.403 1.014c1.457-3.156 4.499-5.429 8.104-5.802 0.027-0.003 0.053-0.006 0.081-0.009-0.317-0.030-0.639-0.046-0.964-0.046-3.666 0-6.861 1.933-8.624 4.843z"></path>
      <path fill="#e53935" style="fill: var(--color4, #e53935)" d="M25.194 4.501c0.104 0.101 0.107 0.266 0.004 0.369l-3.105 3.105c0.297 0.226 0.582 0.468 0.852 0.726 0.101 0.096 0.26 0.094 0.359-0.005l3.826-3.826c0.102-0.102 0.1-0.268-0.004-0.369-2.88-2.786-6.803-4.501-11.126-4.501-0.324 0-0.646 0.011-0.966 0.030 3.94 0.235 7.496 1.894 10.16 4.471z"></path>
      <path fill="#4caf50" style="fill: var(--color5, #4caf50)" d="M27.737 26.874c-2.922 3.153-7.099 5.126-11.737 5.126-6.264 0-11.687-3.6-14.314-8.844l4.961-3.4c1.489 3.704 5.116 6.32 9.353 6.32 2.659 0 5.078-1.030 6.878-2.713l4.859 3.51z"></path>
      <path fill="#43a047" style="fill: var(--color6, #43a047)" d="M6.647 19.756l-1.463 1.003c1.699 3.165 5.040 5.318 8.884 5.318 0.325 0 0.646-0.016 0.964-0.046-3.816-0.364-7.011-2.855-8.385-6.274z"></path>
      <path fill="#43a047" style="fill: var(--color6, #43a047)" d="M16 32c4.638 0 8.815-1.973 11.737-5.126l-1.19-0.86c-2.743 3.414-6.859 5.679-11.51 5.957 0.319 0.019 0.64 0.029 0.963 0.029z"></path>
      <path fill="#ffc107" style="fill: var(--color7, #ffc107)" d="M5.924 16c0 1.328 0.257 2.595 0.724 3.756l-4.961 3.4c-1.079-2.153-1.686-4.584-1.686-7.156 0-2.804 0.721-5.439 1.988-7.731l4.859 3.511c-0.593 1.283-0.924 2.713-0.924 4.22z"></path>
      <path fill="#ffb300" style="fill: var(--color8, #ffb300)" d="M5.185 20.759l1.463-1.003c-0.467-1.161-0.724-2.429-0.724-3.756 0-1.507 0.331-2.937 0.924-4.22l-1.403-1.014c-0.911 1.504-1.44 3.269-1.452 5.164-0.012 1.747 0.421 3.392 1.192 4.829z"></path>
</symbol>
  </defs>
</svg>