<svg aria-hidden="true" style="position: absolute; width: 0; height: 0; overflow: hidden;" version="1.1" xmlns="http://www.w3.org/2000/svg" xmlns:xlink="http://www.w3.org/1999/xlink">
<defs>
<symbol id="icon-github-1" viewBox="0 0 32 32">
<path d="M15.982 0.176c-8.73 0-15.806 7.189-15.806 16.057 0 7.489 5.046 13.78 11.873 15.555-0.005-1.856-0.011-4.132-0.014-4.841-4.561 1.008-5.524-1.965-5.524-1.965-0.746-1.925-1.821-2.437-1.821-2.437-1.488-1.034 0.112-1.013 0.112-1.013 1.646 0.117 2.514 1.717 2.514 1.717 1.462 2.546 3.836 1.81 4.771 1.385 0.147-1.076 0.572-1.811 1.041-2.227-3.642-0.421-7.47-1.849-7.47-8.232 0-1.818 0.641-3.304 1.689-4.471-0.17-0.42-0.732-2.114 0.159-4.408 0 0 1.377-0.447 4.51 1.707 1.308-0.369 2.711-0.554 4.104-0.561 1.393 0.006 2.797 0.191 4.108 0.561 3.13-2.155 4.504-1.707 4.504-1.707 0.893 2.294 0.331 3.988 0.161 4.408 1.051 1.166 1.687 2.652 1.687 4.471 0 6.398-3.836 7.806-7.487 8.219 0.588 0.517 1.112 1.53 1.112 3.084 0 1.234-0.006 4.075-0.011 6.231 6.683-1.874 11.593-8.090 11.593-15.476 0-8.868-7.077-16.057-15.806-16.057z"></path>
</symbol>
<symbol id="icon-linkedin-1" viewBox="0 0 32 32">
<path d="M15.982 0.176c-8.73 0-15.806 7.077-15.806 15.806s7.077 15.806 15.806 15.806c8.73 0 15.806-7.077 15.806-15.806s-7.077-15.806-15.806-15.806zM11.13 24.748h-3.641v-11.71h3.641v11.71zM9.31 11.438c-1.166 0-2.109-0.946-2.109-2.11 0-1.165 0.943-2.111 2.109-2.111 1.164 0 2.109 0.946 2.109 2.111 0 1.164-0.946 2.11-2.109 2.11zM24.763 24.748h-3.638v-5.695c0-1.358-0.024-3.105-1.891-3.105-1.894 0-2.183 1.481-2.183 3.007v5.792h-3.638v-11.71h3.491v1.601h0.050c0.486-0.921 1.673-1.891 3.444-1.891 3.686 0 4.366 2.425 4.366 5.578v6.423z"></path>
</symbol>
<symbol id="icon-linkedin-2" viewBox="0 0 32 32">
<path d="M0.696 10.682h6.553v21.078h-6.553v-21.078zM3.973 0.204c2.095 0 3.797 1.702 3.797 3.8 0 2.096-1.702 3.798-3.797 3.798-2.099 0-3.797-1.702-3.797-3.798 0-2.098 1.697-3.8 3.797-3.8z"></path>
<path d="M11.358 10.682h6.284v2.882h0.090c0.875-1.658 3.012-3.404 6.198-3.404 6.634 0 7.859 4.364 7.859 10.040v11.561h-6.548v-10.251c0-2.445-0.043-5.589-3.404-5.589-3.409 0-3.929 2.665-3.929 5.413v10.426h-6.548v-21.078z"></path>
</symbol>
<symbol id="icon-github-2" viewBox="0 0 32 32">
<path d="M16 0.395c-8.836 0-16 7.163-16 16 0 7.069 4.585 13.067 10.942 15.182 0.8 0.148 1.094-0.347 1.094-0.77 0-0.381-0.015-1.642-0.022-2.979-4.452 0.968-5.391-1.888-5.391-1.888-0.728-1.849-1.776-2.341-1.776-2.341-1.452-0.993 0.11-0.973 0.11-0.973 1.606 0.113 2.452 1.649 2.452 1.649 1.427 2.446 3.743 1.739 4.656 1.33 0.143-1.034 0.558-1.74 1.016-2.14-3.554-0.404-7.29-1.777-7.29-7.907 0-1.747 0.625-3.174 1.649-4.295-0.166-0.403-0.714-2.030 0.155-4.234 0 0 1.344-0.43 4.401 1.64 1.276-0.355 2.645-0.532 4.005-0.539 1.359 0.006 2.729 0.184 4.008 0.539 3.054-2.070 4.395-1.64 4.395-1.64 0.871 2.204 0.323 3.831 0.157 4.234 1.026 1.12 1.647 2.548 1.647 4.295 0 6.145-3.743 7.498-7.306 7.895 0.574 0.497 1.085 1.47 1.085 2.963 0 2.141-0.019 3.864-0.019 4.391 0 0.426 0.288 0.925 1.099 0.768 6.354-2.118 10.933-8.113 10.933-15.18 0-8.837-7.164-16-16-16z"></path>
</symbol>
<symbol id="icon-linkedin-3" viewBox="0 0 32 32">
<path d="M12 12h5.535v2.837h0.079c0.77-1.381 2.655-2.837 5.464-2.837 5.842 0 6.922 3.637 6.922 8.367v9.633h-5.769v-8.54c0-2.037-0.042-4.657-3.001-4.657-3.005 0-3.463 2.218-3.463 4.509v8.688h-5.767v-18z"></path>
<path d="M2 12h6v18h-6v-18z"></path>
<path d="M8 7c0 1.657-1.343 3-3 3s-3-1.343-3-3c0-1.657 1.343-3 3-3s3 1.343 3 3z"></path>
</symbol>
</defs>
</svg>
